<svg version="1.1" id="Layer_1" xmlns="http://www.w3.org/2000/svg" xmlns:xlink="http://www.w3.org/1999/xlink" x="0px" y="0px"
	 width="100%" viewBox="0 0 1113 1119" enable-background="new 0 0 1113 1119" xml:space="preserve">
<path fill="transparent" opacity="1.000000" stroke="none" 
	d="
M1114.000000,411.000000 
	C1114.000000,647.640198 1114.000000,883.780457 1114.000000,1119.960327 
	C743.067993,1119.960327 372.135925,1119.960327 1.101947,1119.960327 
	C1.101947,747.109741 1.101947,374.219452 1.101947,1.164576 
	C371.999939,1.164576 742.999939,1.164576 1114.000000,1.164576 
	C1114.000000,137.530807 1114.000000,274.015411 1114.000000,411.000000 
M22.729950,434.167206 
	C11.358171,480.457001 7.110448,527.414001 8.671885,575.037354 
	C10.261717,623.526733 17.595407,671.024231 31.146368,717.594482 
	C45.018375,765.268066 65.266541,810.128784 91.527290,852.174316 
	C121.953629,900.889343 159.162888,943.872375 203.095703,980.967712 
	C248.227997,1019.075867 298.043182,1049.431274 352.902191,1071.395752 
	C403.841736,1091.790894 456.713898,1104.300659 511.360474,1108.887817 
	C559.165649,1112.900513 606.812256,1110.792358 654.061401,1102.400635 
	C723.634399,1090.044067 788.617737,1065.289185 848.562500,1027.911255 
	C902.786377,994.100586 950.228638,952.394104 989.690063,901.990967 
	C1032.251099,847.628845 1063.599609,787.339417 1083.887939,721.302917 
	C1098.010132,675.337219 1106.094971,628.326843 1107.822144,580.316040 
	C1110.061279,518.077759 1101.582275,457.139343 1083.340088,397.644653 
	C1070.229614,354.886230 1051.843140,314.396942 1028.762207,276.062927 
	C999.453613,227.385391 963.020996,184.633636 920.590515,147.002075 
	C884.909363,115.356384 845.457092,89.145767 802.764587,67.923424 
	C764.556274,48.930172 724.655029,34.460880 683.033142,24.942324 
	C646.816833,16.660002 610.052063,12.352265 572.990662,10.277632 
	C508.161316,6.648593 445.368652,16.653656 384.061005,37.617073 
	C338.980865,53.031677 296.530304,73.662613 256.788239,99.871895 
	C229.223373,118.050499 204.175232,139.356552 180.092224,161.882614 
	C152.371887,187.810822 127.876823,216.501724 106.239113,247.613556 
	C84.336533,279.106262 65.863617,312.520996 50.984818,347.932678 
	C39.329849,375.671600 29.839127,404.084961 22.729950,434.167206 
z"/>
<path fill="#060A1C" opacity="1.000000" stroke="none" 
	d="
M22.776720,433.750732 
	C29.839127,404.084961 39.329849,375.671600 50.984818,347.932678 
	C65.863617,312.520996 84.336533,279.106262 106.239113,247.613556 
	C127.876823,216.501724 152.371887,187.810822 180.092224,161.882614 
	C204.175232,139.356552 229.223373,118.050499 256.788239,99.871895 
	C296.530304,73.662613 338.980865,53.031677 384.061005,37.617073 
	C445.368652,16.653656 508.161316,6.648593 572.990662,10.277632 
	C610.052063,12.352265 646.816833,16.660002 683.033142,24.942324 
	C724.655029,34.460880 764.556274,48.930172 802.764587,67.923424 
	C845.457092,89.145767 884.909363,115.356384 920.590515,147.002075 
	C963.020996,184.633636 999.453613,227.385391 1028.762207,276.062927 
	C1051.843140,314.396942 1070.229614,354.886230 1083.340088,397.644653 
	C1101.582275,457.139343 1110.061279,518.077759 1107.822144,580.316040 
	C1106.094971,628.326843 1098.010132,675.337219 1083.887939,721.302917 
	C1063.599609,787.339417 1032.251099,847.628845 989.690063,901.990967 
	C950.228638,952.394104 902.786377,994.100586 848.562500,1027.911255 
	C788.617737,1065.289185 723.634399,1090.044067 654.061401,1102.400635 
	C606.812256,1110.792358 559.165649,1112.900513 511.360474,1108.887817 
	C456.713898,1104.300659 403.841736,1091.790894 352.902191,1071.395752 
	C298.043182,1049.431274 248.227997,1019.075867 203.095703,980.967712 
	C159.162888,943.872375 121.953629,900.889343 91.527290,852.174316 
	C65.266541,810.128784 45.018375,765.268066 31.146368,717.594482 
	C17.595407,671.024231 10.261717,623.526733 8.671885,575.037354 
	C7.110448,527.414001 11.358171,480.457001 22.776720,433.750732 
M321.008728,86.457909 
	C304.695923,95.745628 288.044434,104.492386 272.148163,114.445358 
	C247.077209,130.142822 223.280548,147.704010 202.111984,168.464493 
	C185.149353,185.100113 167.687988,201.430893 152.485062,219.601364 
	C136.457458,238.757523 122.165871,259.484131 108.335266,280.333527 
	C86.266815,313.601318 69.892159,349.796234 56.763733,387.447205 
	C46.858864,415.853302 38.806290,444.804413 35.011032,474.678680 
	C31.987822,498.475830 29.781212,522.408203 28.213898,546.346191 
	C27.370237,559.231567 28.181705,572.285461 29.054033,585.208801 
	C30.291466,603.540955 31.810785,621.879456 34.044312,640.113037 
	C37.562309,668.832458 44.684978,696.800842 53.643242,724.275879 
	C65.638069,761.064087 81.451759,796.135742 101.128609,829.498230 
	C116.004196,854.720154 132.799652,878.606995 151.690826,900.877197 
	C164.657578,916.163391 178.611069,930.748291 193.247177,944.445923 
	C209.210297,959.385376 225.757309,973.910522 243.360962,986.829773 
	C261.789673,1000.354431 281.544647,1012.139343 301.139130,1023.991577 
	C327.405884,1039.879761 355.522339,1051.986694 384.507111,1061.938965 
	C421.148773,1074.520264 458.663818,1083.526855 497.330566,1087.039429 
	C515.476013,1088.687622 533.672241,1090.588623 551.859192,1090.740723 
	C570.400085,1090.895752 589.002014,1089.547974 607.494690,1087.921021 
	C623.629028,1086.501587 639.746765,1084.332153 655.697327,1081.508423 
	C684.002380,1076.497314 711.759460,1069.139526 738.658813,1058.926758 
	C754.175537,1053.035645 769.810913,1047.214966 784.668579,1039.892578 
	C802.511902,1031.098877 819.870178,1021.216187 836.928650,1010.957275 
	C867.893799,992.334839 896.361755,970.284607 922.262268,945.095764 
	C934.887207,932.817810 947.213562,920.121033 958.572510,906.682007 
	C972.153992,890.613586 985.296021,874.062378 997.293335,856.792847 
	C1014.574463,831.917297 1029.498413,805.536926 1041.556274,777.689026 
	C1048.085327,762.610107 1054.541870,747.422852 1059.700928,731.843994 
	C1069.820679,701.286316 1078.414185,670.253052 1082.097046,638.147400 
	C1084.435547,617.761108 1087.015747,597.323669 1087.700439,576.849426 
	C1088.353882,557.303345 1087.269531,537.638550 1085.873535,518.102844 
	C1084.659912,501.118988 1082.748779,484.097778 1079.737061,467.346375 
	C1071.381958,420.876282 1057.005371,376.217834 1036.746826,333.549591 
	C1024.110840,306.935822 1009.395996,281.500702 992.312927,257.431213 
	C970.332397,226.461578 946.237976,197.346756 917.656128,172.235779 
	C902.341919,158.781311 886.841431,145.446182 870.571228,133.190765 
	C827.621887,100.839691 780.406494,76.321564 729.492249,59.027283 
	C701.655457,49.571819 673.342651,41.832630 644.150024,37.891369 
	C624.807922,35.280006 605.428528,32.038204 585.982666,31.315617 
	C557.279846,30.249046 528.419067,29.542114 499.859467,33.994526 
	C477.466095,37.485630 454.982971,40.783195 432.888794,45.726818 
	C394.157104,54.393112 357.382507,68.883797 321.008728,86.457909 
z"/>
<path fill="#2E3038" opacity="1.000000" stroke="none" 
	d="
M321.343262,86.284721 
	C357.382507,68.883797 394.157104,54.393112 432.888794,45.726818 
	C454.982971,40.783195 477.466095,37.485630 499.859467,33.994526 
	C528.419067,29.542114 557.279846,30.249046 585.982666,31.315617 
	C605.428528,32.038204 624.807922,35.280006 644.150024,37.891369 
	C673.342651,41.832630 701.655457,49.571819 729.492249,59.027283 
	C780.406494,76.321564 827.621887,100.839691 870.571228,133.190765 
	C886.841431,145.446182 902.341919,158.781311 917.656128,172.235779 
	C946.237976,197.346756 970.332397,226.461578 992.312927,257.431213 
	C1009.395996,281.500702 1024.110840,306.935822 1036.746826,333.549591 
	C1057.005371,376.217834 1071.381958,420.876282 1079.737061,467.346375 
	C1082.748779,484.097778 1084.659912,501.118988 1085.873535,518.102844 
	C1087.269531,537.638550 1088.353882,557.303345 1087.700439,576.849426 
	C1087.015747,597.323669 1084.435547,617.761108 1082.097046,638.147400 
	C1078.414185,670.253052 1069.820679,701.286316 1059.700928,731.843994 
	C1054.541870,747.422852 1048.085327,762.610107 1041.556274,777.689026 
	C1029.498413,805.536926 1014.574463,831.917297 997.293335,856.792847 
	C985.296021,874.062378 972.153992,890.613586 958.572510,906.682007 
	C947.213562,920.121033 934.887207,932.817810 922.262268,945.095764 
	C896.361755,970.284607 867.893799,992.334839 836.928650,1010.957275 
	C819.870178,1021.216187 802.511902,1031.098877 784.668579,1039.892578 
	C769.810913,1047.214966 754.175537,1053.035645 738.658813,1058.926758 
	C711.759460,1069.139526 684.002380,1076.497314 655.697327,1081.508423 
	C639.746765,1084.332153 623.629028,1086.501587 607.494690,1087.921021 
	C589.002014,1089.547974 570.400085,1090.895752 551.859192,1090.740723 
	C533.672241,1090.588623 515.476013,1088.687622 497.330566,1087.039429 
	C458.663818,1083.526855 421.148773,1074.520264 384.507111,1061.938965 
	C355.522339,1051.986694 327.405884,1039.879761 301.139130,1023.991577 
	C281.544647,1012.139343 261.789673,1000.354431 243.360962,986.829773 
	C225.757309,973.910522 209.210297,959.385376 193.247177,944.445923 
	C178.611069,930.748291 164.657578,916.163391 151.690826,900.877197 
	C132.799652,878.606995 116.004196,854.720154 101.128609,829.498230 
	C81.451759,796.135742 65.638069,761.064087 53.643242,724.275879 
	C44.684978,696.800842 37.562309,668.832458 34.044312,640.113037 
	C31.810785,621.879456 30.291466,603.540955 29.054033,585.208801 
	C28.181705,572.285461 27.370237,559.231567 28.213898,546.346191 
	C29.781212,522.408203 31.987822,498.475830 35.011032,474.678680 
	C38.806290,444.804413 46.858864,415.853302 56.763733,387.447205 
	C69.892159,349.796234 86.266815,313.601318 108.335266,280.333527 
	C122.165871,259.484131 136.457458,238.757523 152.485062,219.601364 
	C167.687988,201.430893 185.149353,185.100113 202.111984,168.464493 
	C223.280548,147.704010 247.077209,130.142822 272.148163,114.445358 
	C288.044434,104.492386 304.695923,95.745628 321.343262,86.284721 
M195.552994,477.009247 
	C183.944366,527.691772 183.170761,578.624512 192.511398,629.690186 
	C199.905365,670.113159 213.611328,708.336670 233.990417,744.074036 
	C253.843231,778.888428 278.543732,809.802063 308.352203,836.679749 
	C345.318176,870.011230 387.066498,895.173767 434.074158,911.614014 
	C477.452545,926.784912 522.084351,933.610291 568.017822,932.421997 
	C596.935181,931.673889 625.393799,927.760559 653.315002,920.366516 
	C709.765991,905.417480 759.921875,878.582947 803.671509,839.833069 
	C848.599609,800.039185 882.445129,752.415955 904.233887,696.470459 
	C925.230103,642.559814 933.264709,586.705200 928.233826,528.976501 
	C923.541931,475.138062 908.236328,424.587891 881.762817,377.491211 
	C860.936646,340.441071 834.209167,308.132965 802.340515,280.042419 
	C772.069275,253.359879 738.058044,232.583496 700.867249,217.234985 
	C666.701294,203.134827 631.107178,194.270630 594.219299,190.611359 
	C553.081970,186.530533 512.384277,189.063812 472.228699,198.545425 
	C417.658173,211.430740 368.440521,235.483185 324.740234,270.765533 
	C292.848480,296.513977 265.686279,326.449829 243.832260,361.139984 
	C221.371964,396.792480 204.927429,434.981720 195.552994,477.009247 
z"/>
<path fill="#F7D453" opacity="1.000000" stroke="none" 
	d="
M195.647858,476.601685 
	C204.927429,434.981720 221.371964,396.792480 243.832260,361.139984 
	C265.686279,326.449829 292.848480,296.513977 324.740234,270.765533 
	C368.440521,235.483185 417.658173,211.430740 472.228699,198.545425 
	C512.384277,189.063812 553.081970,186.530533 594.219299,190.611359 
	C631.107178,194.270630 666.701294,203.134827 700.867249,217.234985 
	C738.058044,232.583496 772.069275,253.359879 802.340515,280.042419 
	C834.209167,308.132965 860.936646,340.441071 881.762817,377.491211 
	C908.236328,424.587891 923.541931,475.138062 928.233826,528.976501 
	C933.264709,586.705200 925.230103,642.559814 904.233887,696.470459 
	C882.445129,752.415955 848.599609,800.039185 803.671509,839.833069 
	C759.921875,878.582947 709.765991,905.417480 653.315002,920.366516 
	C625.393799,927.760559 596.935181,931.673889 568.017822,932.421997 
	C522.084351,933.610291 477.452545,926.784912 434.074158,911.614014 
	C387.066498,895.173767 345.318176,870.011230 308.352203,836.679749 
	C278.543732,809.802063 253.843231,778.888428 233.990417,744.074036 
	C213.611328,708.336670 199.905365,670.113159 192.511398,629.690186 
	C183.170761,578.624512 183.944366,527.691772 195.647858,476.601685 
M726.571655,602.070435 
	C725.610474,602.992371 724.709595,603.988403 723.679382,604.825317 
	C696.002625,627.308350 665.121643,643.885742 631.112915,654.522034 
	C593.145996,666.396179 554.698975,670.831543 515.737488,659.782410 
	C497.029053,654.476929 479.792419,646.254700 469.166718,628.741638 
	C465.146881,622.116150 462.092773,614.904724 458.598450,607.960388 
	C460.475494,607.480530 461.125000,607.618469 461.729797,607.865723 
	C493.082092,620.686279 524.468201,633.425903 555.727905,646.468689 
	C559.290771,647.955261 560.856934,647.575989 562.865479,644.445984 
	C593.605225,596.543945 624.506592,548.745667 655.220398,500.827118 
	C661.731873,490.668152 667.646423,480.126587 674.148010,469.238770 
	C666.020447,468.767853 658.673828,468.342194 650.656006,467.877655 
	C654.682007,460.101837 658.384644,452.950531 662.384827,445.224670 
	C652.347534,443.875824 643.093506,442.632233 632.489441,441.207214 
	C645.209045,428.441742 661.437073,431.906372 675.341370,427.836243 
	C673.630310,427.241150 672.007324,427.125702 670.386047,426.989624 
	C654.469299,425.653625 639.248657,429.161011 624.298584,433.973419 
	C604.993958,440.187531 585.495422,443.901367 564.996948,443.393188 
	C535.690796,442.666626 506.351410,443.393829 477.029877,443.117096 
	C464.814270,443.001801 454.319763,446.307739 445.420807,454.866150 
	C439.677734,460.389374 433.482147,465.440491 427.520660,470.738434 
	C407.126831,488.862366 386.668121,506.914581 366.414246,525.193726 
	C361.018646,530.063293 356.266754,535.646057 350.497009,541.653442 
	C355.597137,544.397705 359.720062,546.793213 363.997833,548.869690 
	C368.559753,551.084106 370.956421,554.359375 370.295624,559.558838 
	C369.925415,562.471619 369.597504,565.389893 369.238617,568.405579 
	C383.589905,574.525269 397.738342,580.558472 411.967529,586.626099 
	C409.869385,593.783752 407.939392,600.469238 405.949402,607.136780 
	C400.657928,624.866211 400.714478,642.337219 409.545715,658.956360 
	C422.951355,684.183960 444.781647,699.267334 471.294128,707.868835 
	C500.542633,717.358032 530.501953,717.297913 560.574524,712.593994 
	C587.155945,708.436096 612.633240,700.609131 637.225403,689.628845 
	C669.644409,675.153931 699.437439,656.631226 725.700439,632.734375 
	C750.987610,609.725403 771.280640,582.971680 784.713196,551.273621 
	C793.637634,530.213806 797.736755,508.396454 795.867004,485.539459 
	C795.809631,484.838104 795.459717,484.160706 795.246155,483.472137 
	C793.209290,487.388824 792.109802,491.345520 790.925354,495.276581 
	C786.568787,509.735779 783.753296,524.913330 777.468750,538.482422 
	C765.935486,563.384338 747.967712,583.802979 726.571655,602.070435 
z"/>
<path fill="#687480" opacity="1.000000" stroke="none" 
	d="
M726.825684,601.822388 
	C747.967712,583.802979 765.935486,563.384338 777.468750,538.482422 
	C783.753296,524.913330 786.568787,509.735779 790.925354,495.276581 
	C792.109802,491.345520 793.209290,487.388824 795.246155,483.472137 
	C795.459717,484.160706 795.809631,484.838104 795.867004,485.539459 
	C797.736755,508.396454 793.637634,530.213806 784.713196,551.273621 
	C771.280640,582.971680 750.987610,609.725403 725.700439,632.734375 
	C699.437439,656.631226 669.644409,675.153931 637.225403,689.628845 
	C612.633240,700.609131 587.155945,708.436096 560.574524,712.593994 
	C530.501953,717.297913 500.542633,717.358032 471.294128,707.868835 
	C444.781647,699.267334 422.951355,684.183960 409.545715,658.956360 
	C400.714478,642.337219 400.657928,624.866211 405.949402,607.136780 
	C407.939392,600.469238 409.869385,593.783752 411.967529,586.626099 
	C397.738342,580.558472 383.589905,574.525269 369.238617,568.405579 
	C369.597504,565.389893 369.925415,562.471619 370.295624,559.558838 
	C370.956421,554.359375 368.559753,551.084106 363.997833,548.869690 
	C359.720062,546.793213 355.597137,544.397705 350.497009,541.653442 
	C356.266754,535.646057 361.018646,530.063293 366.414246,525.193726 
	C386.668121,506.914581 407.126831,488.862366 427.520660,470.738434 
	C433.482147,465.440491 439.677734,460.389374 445.420807,454.866150 
	C454.319763,446.307739 464.814270,443.001801 477.029877,443.117096 
	C506.351410,443.393829 535.690796,442.666626 564.996948,443.393188 
	C585.495422,443.901367 604.993958,440.187531 624.298584,433.973419 
	C639.248657,429.161011 654.469299,425.653625 670.386047,426.989624 
	C672.007324,427.125702 673.630310,427.241150 675.341370,427.836243 
	C661.437073,431.906372 645.209045,428.441742 632.489441,441.207214 
	C643.093506,442.632233 652.347534,443.875824 662.384827,445.224670 
	C658.384644,452.950531 654.682007,460.101837 650.656006,467.877655 
	C658.673828,468.342194 666.020447,468.767853 674.148010,469.238770 
	C667.646423,480.126587 661.731873,490.668152 655.220398,500.827118 
	C624.506592,548.745667 593.605225,596.543945 562.865479,644.445984 
	C560.856934,647.575989 559.290771,647.955261 555.727905,646.468689 
	C524.468201,633.425903 493.082092,620.686279 461.729797,607.865723 
	C461.125000,607.618469 460.475494,607.480530 458.598450,607.960388 
	C462.092773,614.904724 465.146881,622.116150 469.166718,628.741638 
	C479.792419,646.254700 497.029053,654.476929 515.737488,659.782410 
	C554.698975,670.831543 593.145996,666.396179 631.112915,654.522034 
	C665.121643,643.885742 696.002625,627.308350 723.679382,604.825317 
	C724.709595,603.988403 725.610474,602.992371 726.825684,601.822388 
M418.436401,484.926666 
	C398.014160,503.453918 377.591919,521.981201 356.614319,541.012268 
	C419.844269,567.510315 482.838531,593.909546 546.550903,620.609741 
	C583.349487,563.037476 619.984680,505.720764 657.154114,447.568237 
	C654.657654,447.391205 653.858215,447.288544 653.058228,447.284393 
	C618.266968,447.104431 583.475098,446.730774 548.684509,446.825653 
	C521.379272,446.900116 494.074860,447.509796 466.773132,448.039581 
	C464.610596,448.081573 462.030670,448.815399 460.391571,450.147034 
	C446.475983,461.452209 432.733765,472.970825 418.436401,484.926666 
z"/>
<path fill="#FEFEFF" opacity="1.000000" stroke="none" 
	d="
M418.687927,484.676025 
	C432.733765,472.970825 446.475983,461.452209 460.391571,450.147034 
	C462.030670,448.815399 464.610596,448.081573 466.773132,448.039581 
	C494.074860,447.509796 521.379272,446.900116 548.684509,446.825653 
	C583.475098,446.730774 618.266968,447.104431 653.058228,447.284393 
	C653.858215,447.288544 654.657654,447.391205 657.154114,447.568237 
	C619.984680,505.720764 583.349487,563.037476 546.550903,620.609741 
	C482.838531,593.909546 419.844269,567.510315 356.614319,541.012268 
	C377.591919,521.981201 398.014160,503.453918 418.687927,484.676025 
z"/>
</svg>